Coordinates
version=1
nRows=11
nColumns=46
inDegrees=yes

Units are S.I. units (second, meters, Newtons, ...)
Angles are in degrees.

endheader
time	pelvis_tilt	pelvis_list	pelvis_rotation	pelvis_tx	pelvis_ty	pelvis_tz	bb_angle	bb_tx	bb_ty	bb_tz	hip_flexion_r	hip_adduction_r	hip_rotation_r	knee_angle_r	knee_angle_r_beta	ankle_angle_r	subtalar_angle_r	mtp_angle_r	crank_angle_r	hip_flexion_l	hip_adduction_l	hip_rotation_l	knee_angle_l	knee_angle_l_beta	ankle_angle_l	subtalar_angle_l	mtp_angle_l	crank_angle_l	lumbar_extension	lumbar_bending	lumbar_rotation	arm_flex_r	arm_add_r	arm_rot_r	elbow_flex_r	pro_sup_r	wrist_flex_r	wrist_dev_r	arm_flex_l	arm_add_l	arm_rot_l	elbow_flex_l	pro_sup_l	wrist_flex_l	wrist_dev_l
      0.00500000	    -28.98828373	      1.90122738	     -3.19621838	      0.06153246	      0.98943619	     -0.20697815	      0.00000000	      0.50000000	      0.00000000	      0.25000000	     93.87892646	     -8.50608312	     -3.50667734	     74.25050347	      1.29591576	      5.11036366	     -0.66342902	      0.00000000	      0.00000000	     71.01916444	     -9.62255801	     -1.66095372	     81.33851240	      1.41962485	     -4.06528791	     -8.91033122	      0.00000000	      0.00000000	    -40.93602735	      0.11512283	      0.17569989	     89.36952319	     -6.16493078	     29.13231471	     42.88004260	     36.57155297	      0.00000000	      0.00000000	     88.46451318	    -12.72261811	     29.21518584	     46.06960281	     38.48316139	      0.00000000	      0.00000000
      0.01000000	    -29.01807769	      1.87151916	     -3.19253005	      0.06148254	      0.98939689	     -0.20695883	      0.00000000	      0.50000000	      0.00000000	      0.25000000	     93.92760022	     -8.51828700	     -3.55118343	     74.28945096	      1.29659552	      5.11820095	     -0.61860405	      0.00000000	      0.00000000	     71.04385174	     -9.63565005	     -1.63709397	     81.30503283	      1.41904052	     -4.06599915	     -8.91229296	      0.00000000	      0.00000000	    -40.89857323	      0.11669827	      0.14707788	     89.37192236	     -6.14380996	     29.11809306	     42.78578253	     36.81698672	      0.00000000	      0.00000000	     88.45238758	    -12.69805847	     29.16642384	     46.04971796	     38.76121902	      0.00000000	      0.00000000
      0.01500000	    -28.89979477	      1.74299786	     -3.20285601	      0.06152910	      0.98962596	     -0.20691515	      0.00000000	      0.50000000	      0.00000000	      0.25000000	     93.78858555	     -8.52771071	     -3.72222268	     74.34874936	      1.29763047	      5.20346658	     -0.67473171	      0.00000000	      0.00000000	     70.91364134	     -9.70887338	     -1.54290320	     81.26775143	      1.41838984	     -4.06978003	     -8.97496489	      0.00000000	      0.00000000	    -41.12567057	      0.26656798	      0.31731840	     89.36987395	     -6.15486118	     28.66327526	     43.26653791	     37.19805884	      0.00000000	      0.00000000	     88.35181908	    -12.65409809	     28.60004981	     46.65422644	     39.10712495	      0.00000000	      0.00000000
      0.02000000	    -28.94939509	      1.82874398	     -3.13299745	      0.06155392	      0.98964028	     -0.20698345	      0.00000000	      0.50000000	      0.00000000	      0.25000000	     93.89497824	     -8.65204992	     -3.70036297	     74.36407377	      1.29789793	      5.14462844	     -0.60837596	      0.00000000	      0.00000000	     70.89981813	     -9.58309189	     -1.61081396	     81.14567764	      1.41625925	     -4.25548695	     -9.17830048	      0.00000000	      0.00000000	    -41.01997212	      0.27096366	      0.11269233	     89.39363512	     -5.84409854	     28.78805151	     42.65874437	     37.42981487	      0.00000000	      0.00000000	     88.33882445	    -12.69162811	     28.38969510	     46.43458128	     39.32244011	      0.00000000	      0.00000000
      0.02500000	    -28.97281994	      1.80967820	     -3.16895224	      0.06139229	      0.98915978	     -0.20684087	      0.00000000	      0.50000000	      0.00000000	      0.25000000	     94.03039961	     -8.58774844	     -3.63001304	     74.50078482	      1.30028399	      5.05846185	     -0.55740203	      0.00000000	      0.00000000	     70.86764510	     -9.59964356	     -1.56204533	     81.05506977	      1.41467784	     -4.24384859	     -8.89696740	      0.00000000	      0.00000000	    -40.93114247	      0.22895250	      0.12177988	     89.38745598	     -5.93386363	     29.00392281	     42.33773655	     37.58455928	      0.00000000	      0.00000000	     88.42674911	    -12.66901776	     28.64726770	     45.96089642	     39.50201037	      0.00000000	      0.00000000
      0.03000000	    -28.93131711	      1.71798619	     -3.17330032	      0.06128281	      0.98917607	     -0.20679754	      0.00000000	      0.50000000	      0.00000000	      0.25000000	     93.99481958	     -8.58109303	     -3.73188633	     74.54807643	      1.30110938	      5.15006426	     -0.54932843	      0.00000000	      0.00000000	     70.81835381	     -9.61044856	     -1.45002193	     81.00222455	      1.41375552	     -4.31587111	     -8.99210943	      0.00000000	      0.00000000	    -41.03228780	      0.29278064	      0.18969177	     89.38641055	     -5.96097951	     28.79252360	     42.61283815	     37.86313172	      0.00000000	      0.00000000	     88.36512678	    -12.58699407	     28.32556074	     46.29633303	     39.75950457	      0.00000000	      0.00000000
      0.03500000	    -28.98983736	      1.71635788	     -3.18661086	      0.06126088	      0.98907407	     -0.20679098	      0.00000000	      0.50000000	      0.00000000	      0.25000000	     94.09617373	     -8.59905942	     -3.75888080	     74.60187324	      1.30204832	      5.13320436	     -0.50635557	      0.00000000	      0.00000000	     70.85629140	     -9.63053835	     -1.47344325	     80.94742578	      1.41279910	     -4.35983292	     -8.96983418	      0.00000000	      0.00000000	    -40.93446195	      0.29570710	      0.19245491	     89.39010846	     -5.96795402	     28.91879956	     42.42711555	     38.00036025	      0.00000000	      0.00000000	     88.37760107	    -12.61548111	     28.38655230	     46.09667156	     39.90223375	      0.00000000	      0.00000000
      0.04000000	    -29.02141963	      1.74692221	     -3.19779409	      0.06120261	      0.98895187	     -0.20677245	      0.00000000	      0.50000000	      0.00000000	      0.25000000	     94.18451717	     -8.59467037	     -3.71286952	     74.64550379	      1.30280981	      5.10619901	     -0.48721702	      0.00000000	      0.00000000	     70.87679524	     -9.61667045	     -1.50026729	     80.93019529	      1.41249837	     -4.35641366	     -8.97496574	      0.00000000	      0.00000000	    -40.88879741	      0.26033894	      0.19954334	     89.38306213	     -5.97921036	     28.96637805	     42.41555352	     38.16924567	      0.00000000	      0.00000000	     88.42348256	    -12.60334473	     28.47475096	     45.90887117	     40.06279139	      0.00000000	      0.00000000
      0.04500000	    -29.05135616	      1.75389753	     -3.20763299	      0.06119405	      0.98890477	     -0.20675760	      0.00000000	      0.50000000	      0.00000000	      0.25000000	     94.25404922	     -8.60850072	     -3.72803934	     74.70200828	      1.30379600	      5.08588642	     -0.45509205	      0.00000000	      0.00000000	     70.87711149	     -9.62595802	     -1.51995469	     80.86857569	      1.41142291	     -4.34987819	     -8.92557718	      0.00000000	      0.00000000	    -40.84211786	      0.24746586	      0.20117488	     89.38497815	     -6.01219210	     29.02735120	     42.33321734	     38.28898726	      0.00000000	      0.00000000	     88.43832772	    -12.65095729	     28.44787437	     45.81323769	     40.20669800	      0.00000000	      0.00000000
      0.05000000	    -29.04516364	      1.73906351	     -3.21445715	      0.06116743	      0.98890409	     -0.20675408	      0.00000000	      0.50000000	      0.00000000	      0.25000000	     94.28393277	     -8.62891947	     -3.77241465	     74.75692996	      1.30475457	      5.08432326	     -0.43803044	      0.00000000	      0.00000000	     70.84591730	     -9.63366744	     -1.51379299	     80.81786462	      1.41053783	     -4.37745449	     -8.96194667	      0.00000000	      0.00000000	    -40.85320779	      0.25184203	      0.20514292	     89.39230169	     -5.99984196	     29.01037219	     42.30292710	     38.42003558	      0.00000000	      0.00000000	     88.42152911	    -12.65365836	     28.37117240	     45.84390431	     40.36614337	      0.00000000	      0.00000000
      0.05500000	    -29.07207948	      1.73062862	     -3.22483716	      0.06112269	      0.98883888	     -0.20676847	      0.00000000	      0.50000000	      0.00000000	      0.25000000	     94.34775176	     -8.64374207	     -3.80175191	     74.81049172	      1.30568940	      5.09579077	     -0.43058996	      0.00000000	      0.00000000	     70.85968436	     -9.64341359	     -1.50711950	     80.77784739	      1.40983940	     -4.37774344	     -8.94217677	      0.00000000	      0.00000000	    -40.83006008	      0.25475151	      0.23052578	     89.38950211	     -6.00851175	     28.95551367	     42.36325079	     38.54578899	      0.00000000	      0.00000000	     88.40928921	    -12.65523209	     28.27542943	     45.90553852	     40.50739312	      0.00000000	      0.00000000
